# xmcd
#
# Track frame offsets: 
#        150
#        36019
#        62668
#
# Disc length: 1310 seconds
#
# Revision: 0
# Processed by: cddbd v1.5.2PL0 Copyright (c) Steve Scherf et al.
# Submitted via: ExactAudioCopy v0.95b3
#
DISCID=1e051c03
DTITLE=Grand-Slam - Promo 2007
DYEAR=1900
DGENRE=Funk
TTITLE0=Amusez vous bien
TTITLE1=Win the lottery
TTITLE2=U don't ring my bell
EXTD=
EXTT0=
EXTT1=
EXTT2=
PLAYORDER=
